<svg data-v-423bf9ae="" xmlns="http://www.w3.org/2000/svg" viewBox="0 0 115.17103055835524 60" class="font"><!----><!----><!----><g data-v-423bf9ae="" id="d77b3332-cf21-4f9b-b13c-9bd6c48260c4" fill="white" transform="matrix(6.036217558641619,0,0,6.036217558641619,-2.5352117918741612,0.6639831082888428)"><path d="M6.02 9.83L6.02 9.83L0.42 9.83L0.42 9.74L1.78 9.74L1.78 0.03L0.42 0.03L0.42-0.06L3.26-0.06L3.26 9.74L6.02 9.74L6.02 9.74Q6.33 9.74 6.55 9.66L6.55 9.66L6.55 9.66Q6.78 9.58 6.93 9.44L6.93 9.44L6.93 9.44Q7.08 9.31 7.17 9.15L7.17 9.15L7.17 9.15Q7.27 8.99 7.31 8.83L7.31 8.83L7.31 8.83Q7.08 9.13 6.72 9.13L6.72 9.13L6.72 9.13Q6.41 9.13 6.20 8.91L6.20 8.91L6.20 8.91Q5.98 8.69 5.98 8.39L5.98 8.39L5.98 8.39Q5.98 8.08 6.20 7.86L6.20 7.86L6.20 7.86Q6.41 7.64 6.72 7.64L6.72 7.64L6.72 7.64Q7.03 7.64 7.25 7.86L7.25 7.86L7.25 7.86Q7.46 8.08 7.46 8.39L7.46 8.39L7.46 8.39Q7.46 9.02 7.07 9.42L7.07 9.42L7.07 9.42Q6.68 9.83 6.02 9.83ZM18.13 9.74L18.13 9.74L19.50 9.74L19.50 9.83L15.30 9.83L15.30 9.74L16.65 9.74L14.88 5.63L11.52 5.63L9.76 9.74L11.10 9.74L11.10 9.83L8.30 9.83L8.30 9.74L9.67 9.74L9.67 9.74Q10.74 7.27 11.80 4.82L11.80 4.82L11.80 4.82Q12.85 2.38 13.90-0.11L13.90-0.11L13.90-0.11Q14.24 0.67 14.47 1.21L14.47 1.21L14.47 1.21Q14.70 1.75 14.88 2.15L14.88 2.15L14.88 2.15Q15.05 2.55 15.19 2.88L15.19 2.88L15.19 2.88Q15.33 3.21 15.49 3.58L15.49 3.58L15.49 3.58Q15.65 3.96 15.86 4.44L15.86 4.44L15.86 4.44Q16.06 4.93 16.37 5.63L16.37 5.63L16.37 5.63Q16.67 6.34 17.10 7.34L17.10 7.34L17.10 7.34Q17.53 8.34 18.13 9.74ZM13.20 1.72L11.56 5.54L14.84 5.54L13.20 1.72Z"></path></g><!----><!----></svg>